<?xml version="1.0" encoding="utf-8"?>
<!-- Generator: Adobe Illustrator 16.0.0, SVG Export Plug-In . SVG Version: 6.00 Build 0)  -->
<!DOCTYPE svg PUBLIC "-//W3C//DTD SVG 1.1//EN" "http://www.w3.org/Graphics/SVG/1.1/DTD/svg11.dtd">
<svg version="1.1" xmlns="http://www.w3.org/2000/svg" xmlns:xlink="http://www.w3.org/1999/xlink" x="0px" y="0px" width="720px"
	 height="503.999px" viewBox="0 0 720 503.999" enable-background="new 0 0 720 503.999" xml:space="preserve">
<g id="Layer_1">
	<rect fill="#FFFFFF" width="720" height="503.999"/>
</g>
<g id="Layer_2">
	<g>
		<path fill="#F5EDEB" d="M563.062,263H511.9c-38.415-51.891,20.939-53.94,28.101-54h23.702c27.614,0,50-22.386,50-50v-15
			c0-27.614-22.386-50-50-50h-201c-23.68,0-43.5,16.467-48.672,38.571l-0.016,0.005c0,0,0.003,0.012,0.007,0.029
			c-0.854,3.662-1.32,7.473-1.32,11.395v15c0,0.382,0.021,0.759,0.029,1.139c-2.98,8.716-9.15,17.678-21.329,23.861h-25.77
			c-25.367,0-45.93,17.52-45.93,39.131v11.738c0,21.611,20.563,39.131,45.93,39.131h28.208
			c-12.321,8.373-20.138,20.786-20.138,34.652v13.695c0,3.382,0.479,6.675,1.359,9.847l-0.015-0.014c0,0,0.011,0.024,0.028,0.06
			c0.447,1.603,1.002,3.172,1.656,4.706c1.614,6,2.667,16.386-6.087,23.554h-78.787c-29.028,0-52.56,13.724-52.56,30.652v9.195
			c0,16.929,23.531,30.652,52.56,30.652h211.286c29.028,0,52.56-13.724,52.56-30.652v-9.195c0-3.553-1.048-6.96-2.954-10.133
			c1.923-7.497,7.657-11.222,13.672-13.02h96.641c31.835,0,57.642-20.439,57.642-45.652v-13.695
			C620.703,283.439,594.896,263,563.062,263z"/>
		<path fill="#F5EDEB" d="M584.5,82.125c0,3.245-3.864,5.875-8.629,5.875H448.629c-4.767,0-8.629-2.63-8.629-5.875l0,0
			c0-3.245,3.862-5.875,8.629-5.875h127.242C580.636,76.25,584.5,78.88,584.5,82.125L584.5,82.125z"/>
		<path fill="#F5EDEB" d="M338,444.5c0,1.933-1.567,3.5-3.5,3.5h-176c-1.933,0-3.5-1.567-3.5-3.5l0,0c0-1.933,1.567-3.5,3.5-3.5h176
			C336.433,441,338,442.567,338,444.5L338,444.5z"/>
		<path fill="#F5EDEB" d="M582.923,448c0,1.933-1.042,3.5-2.325,3.5H463.652c-1.284,0-2.325-1.567-2.325-3.5l0,0
			c0-1.933,1.041-3.5,2.325-3.5h116.945C581.881,444.5,582.923,446.067,582.923,448L582.923,448z"/>
		<path opacity="0.5" fill="#FFFFFF" d="M467.759,108.75c0,1.51-1.042,2.734-2.325,2.734H348.488c-1.284,0-2.325-1.225-2.325-2.734
			l0,0c0-1.51,1.041-2.734,2.325-2.734h116.945C466.717,106.016,467.759,107.24,467.759,108.75L467.759,108.75z"/>
		<path fill="#F5EDEB" d="M649.097,448c0,1.933-0.419,3.5-0.935,3.5h-46.99c-0.517,0-0.935-1.567-0.935-3.5l0,0
			c0-1.933,0.418-3.5,0.935-3.5h46.99C648.678,444.5,649.097,446.067,649.097,448L649.097,448z"/>
		<path opacity="0.5" fill="#FFFFFF" d="M455.93,122.75c0,1.51-0.419,2.734-0.935,2.734h-46.99c-0.517,0-0.935-1.225-0.935-2.734
			l0,0c0-1.51,0.418-2.734,0.935-2.734h46.99C455.511,120.016,455.93,121.24,455.93,122.75L455.93,122.75z"/>
		<path fill="#F5EDEB" d="M124.167,445c0,1.933-0.763,3.5-1.703,3.5h-85.62c-0.941,0-1.703-1.567-1.703-3.5l0,0
			c0-1.933,0.762-3.5,1.703-3.5h85.62C123.404,441.5,124.167,443.067,124.167,445L124.167,445z"/>
	</g>
</g>
<g id="Layer_14">
	<g>
		<rect x="257.423" y="272.63" fill="#AB8FB0" width="17.039" height="21.741"/>
		<g>
			<path fill="#AB8FB0" d="M257.952,290.871c-4.682,0-8.49-3.589-8.49-8s3.809-8,8.49-8s8.49,3.589,8.49,8
				S262.633,290.871,257.952,290.871z M257.952,275.871c-4.13,0-7.49,3.141-7.49,7s3.36,7,7.49,7s7.49-3.141,7.49-7
				S262.082,275.871,257.952,275.871z"/>
		</g>
	</g>
</g>
<g id="Layer_13">
	<g>
		<g>
			<path fill="#7B6B9D" d="M326.325,429.72l2.851,0.936l15.386-46.921c-1.165,0.336-2.33,0.669-3.49,1.015L326.325,429.72z"/>
			<path fill="#645984" d="M395.893,355.5h-45.229l-9.592,29.249c1.16-0.346,2.326-0.679,3.49-1.015l8.275-25.234h40.771
				l3.618,13.148c0.986-0.183,1.974-0.367,2.961-0.546L395.893,355.5z"/>
			<path fill="#7B6B9D" d="M397.226,371.648l16.578,60.25l2.893-0.797l-16.51-59.999
				C399.199,371.281,398.212,371.466,397.226,371.648z"/>
		</g>
		<path fill="#7B6B9D" d="M415.25,353c0-4.418-3.102-8-6.926-8h-71.863c-3.825,0-6.926,3.582-6.926,8
			c0,1.744,0.489,3.353,1.309,4.667h83.098C414.762,356.353,415.25,354.744,415.25,353z"/>
		<path fill="#645984" d="M330.844,357.667c1.258,2.016,3.302,3.333,5.618,3.333h25.974h45.889c2.314,0,4.359-1.317,5.617-3.333
			H330.844z"/>
	</g>
</g>
<g id="Layer_10">
	<g>
		<g>
			<polygon fill="#BA9AAC" points="168,304.891 84,304.891 84,422 168,338 			"/>
		</g>
		<g>
			<polygon fill="#A5889A" points="84,422 84,429.359 168,429.359 168,338 			"/>
		</g>
		<g>
			<path fill="#998191" d="M163.667,345.972h-75V311h75V345.972z M90.667,343.972h71V313h-71V343.972z"/>
		</g>
		<g>
			<path fill="#998191" d="M163.5,384.589h-75v-34.972h75V384.589z M90.5,382.589h71v-30.972h-71V382.589z"/>
		</g>
		<g>
			<path fill="#998191" d="M163.5,424.681h-75v-34.972h75V424.681z M90.5,422.681h71v-30.972h-71V422.681z"/>
		</g>
		<g>
			<circle fill="#998191" cx="126" cy="319.333" r="2"/>
		</g>
		<g>
			<circle fill="#998191" cx="126.167" cy="360.334" r="2"/>
		</g>
		<g>
			<circle fill="#998191" cx="126.167" cy="399.5" r="2"/>
		</g>
	</g>
</g>
<g id="Layer_11">
	<g>
		<g>
			<g>
				<path fill="#645984" d="M621.123,394.038c0,1.613-0.421,2.923-0.942,2.923h-0.697c-0.521,0-0.943-1.31-0.943-2.923v-86.179
					c0-1.614,0.423-2.922,0.943-2.922h0.697c0.521,0,0.942,1.308,0.942,2.922V394.038z"/>
			</g>
			<g>
				<g>
					<path fill="#645984" d="M619.479,388.485c0,0-20.639,6.701-27.13-24.614L619.479,388.485z"/>
				</g>
				<g>
					<path fill="#7B6B9D" d="M619.258,388.682c0,0,4.82-21.157-26.948-24.811L619.258,388.682z"/>
				</g>
			</g>
			<g>
				<g>
					<path fill="#645984" d="M618.243,361.278c0,0-17.484,5.678-22.985-20.853L618.243,361.278z"/>
				</g>
				<g>
					<path fill="#7B6B9D" d="M618.056,361.445c0,0,4.085-17.926-22.832-21.02L618.056,361.445z"/>
				</g>
			</g>
			<g>
				<g>
					<path fill="#645984" d="M618.824,339.542c0,0-14.141,4.591-18.587-16.861L618.824,339.542z"/>
				</g>
				<g>
					<path fill="#7B6B9D" d="M618.672,339.678c0,0,3.303-14.495-18.461-16.997L618.672,339.678z"/>
				</g>
			</g>
			<g>
				<g>
					<path fill="#645984" d="M621.152,329.026c0,0,14.137,4.59,18.583-16.861L621.152,329.026z"/>
				</g>
				<g>
					<path fill="#7B6B9D" d="M621.303,329.162c0,0-3.301-14.495,18.463-16.997L621.303,329.162z"/>
				</g>
			</g>
			<g>
				<g>
					<path fill="#645984" d="M618.572,316.778c0,0-11.137,3.617-14.641-13.282L618.572,316.778z"/>
				</g>
				<g>
					<path fill="#7B6B9D" d="M618.454,316.886c0,0,2.602-11.418-14.544-13.39L618.454,316.886z"/>
				</g>
			</g>
			<g>
				<g>
					<path fill="#645984" d="M621.157,350.597c0,0,17.486,5.679,22.986-20.853L621.157,350.597z"/>
				</g>
				<g>
					<path fill="#7B6B9D" d="M621.345,350.765c0,0-4.084-17.926,22.833-21.021L621.345,350.765z"/>
				</g>
			</g>
			<g>
				<g>
					<path fill="#645984" d="M621.928,378.167c0,0,20.639,6.7,27.13-24.614L621.928,378.167z"/>
				</g>
				<g>
					<path fill="#7B6B9D" d="M622.148,378.363c0,0-4.82-21.157,26.948-24.811L622.148,378.363z"/>
				</g>
			</g>
		</g>
		<g>
			<g>
				<path fill="#B293A5" d="M633.961,428.42c0.787,0,4.571-3.351,4.571-3.99v-29.662c-7.995,12.188-19.185,21.878-28.035,33.652
					H633.961z"/>
			</g>
			<g>
				<path fill="#C9AABB" d="M637.109,392.459h-35.562c-0.785,0-1.422,0.519-1.422,1.156v30.501c0,0.639,4.099,4.304,4.884,4.304
					h5.488c8.851-11.774,20.04-21.465,28.035-33.652v-1.152C638.532,392.978,637.896,392.459,637.109,392.459z"/>
			</g>
		</g>
	</g>
</g>
<g id="Layer_9">
	<g>
		<g>
			<ellipse fill="#AB8FB0" cx="125.265" cy="268.44" rx="19.069" ry="2.399"/>
		</g>
		<g>
			<g>
				<path fill="#645984" d="M131.361,268.734c0,0,12.905-22.609,28.185-11.225c5.369,4.002-18.045-23.893-32.936,3.393
					C120.498,272.098,131.361,268.734,131.361,268.734z"/>
			</g>
			<g>
				<path fill="#7B6B9D" d="M130.84,273.131c0,0,24.553-13.631,32.275,5.418c2.713,6.695-3.272-32.133-32.275-15.301
					C118.939,270.155,130.84,273.131,130.84,273.131z"/>
			</g>
			<g>
				<path fill="#7B6B9D" d="M130.724,266.112c0,0-9.61-15.777,5.201-19.793c5.206-1.412-24.665,0.729-12.754,19.394
					C128.059,273.371,130.724,266.112,130.724,266.112z"/>
			</g>
			<g>
				<path fill="#AB8FB0" d="M121.754,269.711c0,0-17.255-22.156-31.819-7.652c-5.119,5.098,15.594-28.285,35.689-1.441
					C133.87,271.634,121.754,269.711,121.754,269.711z"/>
			</g>
			<g>
				<path fill="#C9AABB" d="M123.561,272.28c0,0-24.554-13.63-32.274,5.419c-2.714,6.695,3.272-32.133,32.274-15.302
					C135.462,269.305,123.561,272.28,123.561,272.28z"/>
			</g>
			<g>
				<path fill="#E3C5C3" d="M127.033,270.477c-0.511,0.006-1.028-0.045-1.548-0.045c-8.306,0-15.536-0.842-19.289-2.044
					c-3.185,3.306-5.018,7.989-5.018,13.964c0,8.975,0.811,16.869,7.196,21.424h21.246
					C132.661,292.715,132.064,280.852,127.033,270.477z"/>
			</g>
			<g>
				<path fill="#C9AABB" d="M149.322,282.339c0-5.909-1.793-10.516-4.912-13.812c-3.596,1.066-9.983,1.885-17.377,1.977
					c5.031,10.375,5.627,22.211,2.586,33.271h11.795C147.783,299.221,149.322,291.27,149.322,282.339z"/>
			</g>
		</g>
	</g>
</g>
<g id="Layer_8">
	<g>
		<g>
			<g>
				<path fill="#AB8FB0" d="M512.608,136.093c-16.575,0-30.013,13.437-30.013,30.012c0,12.248,7.341,22.774,17.858,27.44
					l39.595-39.594C535.383,143.434,524.855,136.093,512.608,136.093z"/>
				<path fill="#967B9C" d="M500.454,193.545c3.717,1.649,7.827,2.572,12.154,2.572c16.575,0,30.013-13.436,30.013-30.012
					c0-4.328-0.923-8.438-2.572-12.154L500.454,193.545z"/>
			</g>
		</g>
		<g>
			<g>
				<polygon fill="#F5EDEB" points="512.285,165.153 495.808,185.001 513.803,166.778 				"/>
			</g>
		</g>
		<g>
			<g>
				<path fill="#7B6B9D" d="M512.608,192.28c-14.433,0-26.175-11.742-26.175-26.174s11.742-26.175,26.175-26.175
					c14.435,0,26.175,11.742,26.175,26.175S527.043,192.28,512.608,192.28z M512.608,140.723c-13.996,0-25.383,11.387-25.383,25.382
					s11.387,25.382,25.383,25.382s25.383-11.386,25.383-25.382S526.604,140.723,512.608,140.723z"/>
			</g>
		</g>
		<g>
			<g>
				<circle fill="#F1F1F1" cx="512.608" cy="166.105" r="2.784"/>
			</g>
		</g>
		<g>
			<g>
				<polygon fill="#F5EDEB" points="514.854,166.225 525.564,154.425 512.608,165.084 				"/>
			</g>
		</g>
		<g>
			<g>
				<polygon fill="#F5EDEB" points="513.886,167.635 527.501,180.69 515.446,167.977 				"/>
			</g>
		</g>
		<g>
			<g>
				<rect x="511.118" y="140.2" fill="#F1F1F1" width="1" height="6"/>
			</g>
		</g>
		<g>
			<g>
				<rect x="511.118" y="186.2" fill="#F1F1F1" width="1" height="6"/>
			</g>
		</g>
		<g>
			<g>
				<rect x="533.118" y="165.073" fill="#F1F1F1" width="6" height="0.792"/>
			</g>
		</g>
		<g>
			<g>
				<rect x="486.118" y="164.677" fill="#F1F1F1" width="7" height="0.792"/>
			</g>
		</g>
	</g>
</g>
<g id="Layer_12">
	<g>
		<g>
			<g>
				<path fill="#C9AABB" d="M198.118,181.2h-70v-70h70V181.2z M132.118,177.2h62v-62h-62V177.2z"/>
			</g>
		</g>
		<g>
			<path fill="#F5EDEB" d="M194.118,116.049V115.2h-62v62h3.265C144.393,168.2,194.118,116.049,194.118,116.049z"/>
		</g>
		<g opacity="0.6">
			<polygon fill="#E8C4CA" points="194.118,116.049 135.383,177.2 194.118,177.2 			"/>
		</g>
	</g>
</g>
<g id="Layer_3">
	<g>
		<rect x="168" y="430.188" fill="#A5889A" width="154" height="2.625"/>
		<rect x="79" y="430.188" fill="#A5889A" width="69.55" height="2.625"/>
		<rect x="338" y="430.188" fill="#A5889A" width="163" height="2.625"/>
		<rect x="524" y="430.188" fill="#A5889A" width="121" height="2.625"/>
	</g>
</g>
<g id="Layer_4">
	<g>
		<g>
			<g>
				<path fill="#A38797" d="M508.595,298.352l-8.292,41.461c1.08-0.235,2.15-0.488,3.211-0.76l5.081-25.404l4.491,22.458
					c0.954-0.342,1.903-0.694,2.849-1.058L508.595,298.352z"/>
				<path fill="#C9AABB" d="M482.124,430.706l2.941,0.588l18.448-92.241c-1.061,0.271-2.131,0.524-3.211,0.76L482.124,430.706z"/>
				<path fill="#C9AABB" d="M513.086,336.106l19.038,95.188l2.941-0.588l-19.131-95.657
					C514.989,335.412,514.04,335.765,513.086,336.106z"/>
			</g>
			<g>
				<path fill="#C9AABB" d="M197.991,430.706l2.941,0.588l17.665-88.322c-1.165,0.601-2.313,1.245-3.446,1.936L197.991,430.706z"/>
				<path fill="#A38797" d="M224.461,298.352l-9.311,46.556c1.133-0.69,2.282-1.335,3.446-1.936l5.865-29.323l4.974,24.867
					c0.955-0.313,1.916-0.61,2.879-0.898L224.461,298.352z"/>
				<path fill="#C9AABB" d="M229.435,338.516l18.556,92.778l2.941-0.588l-18.618-93.089
					C231.351,337.905,230.39,338.202,229.435,338.516z"/>
			</g>
		</g>
		<rect x="181.5" y="295" fill="#C9AABB" width="367" height="11"/>
	</g>
</g>
<g id="Layer_6">
	<g>
		<polygon fill="#89728C" points="380,295 354,295 357,278 377,278 		"/>
		<rect x="297" y="196" fill="#AB8FB0" width="140" height="86"/>
		<rect x="302" y="201.292" fill="#FFFFFF" width="129.5" height="75.416"/>
		<path fill="#F5EDEB" d="M352.414,213.709c0.573,0.598,0.761,1.349,0.418,1.677l-32.451,31.205
			c-0.343,0.329-1.085,0.112-1.66-0.485l0,0c-0.574-0.597-0.763-1.348-0.42-1.677l32.452-31.205
			C351.096,212.895,351.839,213.111,352.414,213.709L352.414,213.709z"/>
		<path fill="#F5EDEB" d="M351.512,230.829c0.574,0.598,0.884,1.231,0.692,1.415l-18.167,17.471
			c-0.191,0.184-0.812-0.15-1.387-0.748l0,0c-0.574-0.597-0.884-1.231-0.693-1.415l18.168-17.47
			C350.316,229.897,350.938,230.231,351.512,230.829L351.512,230.829z"/>
	</g>
</g>
<g id="Layer_5">
	<g>
		<g>
			<g opacity="0.7">
				<g>
					<polygon fill="#FFFFFF" points="260.292,218.176 302,294.371 440.674,294.371 285.483,190.025 					"/>
				</g>
			</g>
			<g>
				<g>
					
						<rect x="240.457" y="190.265" transform="matrix(0.7438 0.6684 -0.6684 0.7438 205.9211 -105.787)" fill="#7B6B9D" width="1.01" height="50.939"/>
				</g>
			</g>
			<g>
				<g>
					<polygon fill="#7B6B9D" points="220.192,287.564 221.771,287.564 221.771,241.301 220.192,241.758 					"/>
				</g>
			</g>
			<g>
				<g>
					<polygon fill="#7B6B9D" points="216.03,287.564 217.609,287.564 217.609,241.301 216.03,240.754 					"/>
				</g>
			</g>
			<g>
				<g>
					
						<rect x="236.123" y="187.89" transform="matrix(0.7456 0.6663 -0.6663 0.7456 202.3044 -103.4264)" fill="#7B6B9D" width="1.01" height="50.78"/>
				</g>
			</g>
			<g>
				<g>
					<path fill="#7B6B9D" d="M219.726,242.271c-2.909,0-5.275-2.366-5.275-5.276c0-2.908,2.366-5.274,5.275-5.274
						s5.276,2.366,5.276,5.274C225.002,239.905,222.635,242.271,219.726,242.271z M219.726,232.73c-2.353,0-4.265,1.913-4.265,4.265
						c0,2.354,1.912,4.267,4.265,4.267s4.267-1.913,4.267-4.267C223.993,234.644,222.079,232.73,219.726,232.73z"/>
				</g>
			</g>
			<g>
				<path fill="#C9AABB" d="M263.203,189.679l-11.537-10.317c-0.461-0.412-1.169-0.373-1.581,0.088l-5.227,5.844
					c-0.412,0.461-0.372,1.169,0.089,1.582l11.688,10.454c-3.421,6.714-2.796,14.566,2.174,19.555
					c0.468,0.471,0.965,0.898,1.482,1.292c8.378-9.421,16.863-18.631,25.191-28.151
					C279.768,184.448,270.381,184.467,263.203,189.679z M255.824,194.701l-7.466-6.413l0.73-0.882l7.48,6.426L255.824,194.701z
					 M257.79,192.455l-7.456-6.405l0.746-0.868l7.474,6.42L257.79,192.455z M259.839,190.28l-7.403-6.36l0.746-0.868l7.406,6.363
					L259.839,190.28z"/>
			</g>
		</g>
		<path fill="#726593" d="M228.677,295.039h-19.242c-2.658,0-2.658-8.336,0-8.336h19.242
			C231.335,286.703,231.335,295.039,228.677,295.039z"/>
	</g>
</g>
<g id="Layer_7">
	<g>
		<g>
			<g>
				<g>
					<g>
						<polygon fill="#FFFFFF" points="462.696,233.861 461.772,237.705 461.958,239.693 464.663,239.38 464.333,237.33 						"/>
					</g>
				</g>
			</g>
			<g>
				<g>
					<g>
						<path fill="#AB8FB0" d="M469.456,280.715c0.08,0.709-0.458,1.352-1.204,1.439l0,0c-0.749,0.086-1.422-0.416-1.503-1.125
							l-4.819-41.584c-0.08-0.708,0.457-1.352,1.204-1.439l0,0c0.747-0.085,1.42,0.418,1.503,1.125L469.456,280.715z"/>
					</g>
				</g>
			</g>
			<g>
				<g>
					<g>
						<polygon fill="#645984" points="462.397,235.083 463.235,234.976 462.623,233.399 						"/>
					</g>
				</g>
			</g>
		</g>
		<g>
			<g>
				<g>
					<g>
						<polygon fill="#FFFFFF" points="455.785,237.489 454.947,241.195 455.15,243.101 457.746,242.764 457.402,240.801 						"/>
					</g>
				</g>
			</g>
			<g>
				<g>
					<g>
						<path fill="#7B6B9D" d="M462.887,282.403c0.087,0.678-0.423,1.303-1.14,1.397l0,0c-0.717,0.092-1.369-0.381-1.455-1.061
							l-5.171-39.878c-0.088-0.678,0.423-1.304,1.138-1.398l0,0c0.716-0.092,1.37,0.382,1.458,1.062L462.887,282.403z"/>
					</g>
				</g>
			</g>
			<g>
				<g>
					<g>
						<polygon fill="#645984" points="455.515,238.667 456.317,238.554 455.708,237.046 						"/>
					</g>
				</g>
			</g>
		</g>
		<g>
			<g>
				<g>
					<path fill="#89728C" d="M468,282.645c-0.078,0.488-0.613,0.81-1.198,0.717l-0.423-0.066c-0.584-0.094-0.994-0.563-0.916-1.053
						l5.563-35.088c0.075-0.489,0.612-0.809,1.197-0.718l0.421,0.067c0.584,0.094,0.995,0.564,0.919,1.053L468,282.645z"/>
				</g>
			</g>
			<g>
				<g>
					<polygon fill="#C9AABB" points="473.705,248.176 470.756,247.708 472.823,235.806 475.302,236.198 					"/>
				</g>
			</g>
			<g>
				<g>
					
						<rect x="465.312" y="282.433" transform="matrix(0.9877 0.1566 -0.1566 0.9877 50.1307 -69.5847)" fill="#B62425" width="2.569" height="1.731"/>
				</g>
			</g>
		</g>
		<g>
			<polygon fill="#9B7CA1" points="456.118,286.382 456.118,294.2 466.181,294.2 475.118,294.2 475.118,267.382 			"/>
			<polygon fill="#89728C" points="475.118,267.2 466.181,267.2 456.118,267.2 456.118,286.382 475.118,267.382 			"/>
		</g>
	</g>
</g>
</svg>
